<svg width="25" height="25" viewBox="0 0 20 20" fill="none" xmlns="http://www.w3.org/2000/svg">
<path d="M2 6C2 3.79086 3.79086 2 6 2H14C16.2091 2 18 3.79086 18 6V14C18 16.2091 16.2091 18 14 18H6C3.79086 18 2 16.2091 2 14V6Z" fill="#B62424"/>
<path fill-rule="evenodd" clip-rule="evenodd" d="M15.1499 9.99999C15.1499 10.359 14.8589 10.65 14.4999 10.65L5.4999 10.65C5.14092 10.65 4.8499 10.359 4.8499 9.99999C4.8499 9.64101 5.14092 9.34999 5.4999 9.34999L14.4999 9.34999C14.8589 9.34999 15.1499 9.64101 15.1499 9.99999Z" fill="white"/>
</svg>
