<svg width="25" height="25" viewBox="0 0 20 20" fill="none" xmlns="http://www.w3.org/2000/svg">
  <path
    d="M2 6C2 3.79086 3.79086 2 6 2H14C16.2091 2 18 3.79086 18 6V14C18 16.2091 16.2091 18 14 18H6C3.79086 18 2 16.2091 2 14V6Z"
    fill="#5F36BC" />
  <path fill-rule="evenodd" clip-rule="evenodd"
    d="M14.4742 7.05543C14.7197 7.31732 14.7064 7.72866 14.4445 7.97419L9.11141 12.9742C8.86138 13.2086 8.47232 13.2086 8.22229 12.9742L5.55543 10.4742C5.29353 10.2287 5.28025 9.81736 5.52576 9.55546C5.77128 9.29355 6.18262 9.28027 6.44452 9.52579L8.66681 11.609L13.5554 7.02581C13.8173 6.78028 14.2286 6.79354 14.4742 7.05543Z"
    fill="white" />
</svg>
